<svg viewBox="0 0 61.56 27.71" preserveAspectRatio="none" xmlns="http://www.w3.org/2000/svg" data-name="Layer 1" id="Layer_1" focusable="false" role="img" aria-label="SPY">
  <defs><style>
    .spy-logo__box { fill: #f57f29; transition: fill 0.2s ease; }
    .spy-logo__mark { fill: #fff; }
    .svg-logo-container:hover .spy-logo__box,
    .svg-logo-container:focus-visible .spy-logo__box { fill: #2c393e; }
  </style></defs>
  <polygon points="0 27.71 61.56 27.71 61.56 0 0 0 0 27.71 0 27.71" class="spy-logo__box"></polygon>
  <path transform="translate(-0.89 -0.82)" d="M58.09,10.73H54.16V6.57h0a.44.44,0,0,0-.43-.44h-8a.44.44,0,0,0-.44.44v4.16H41.39a.45.45,0,0,0-.43.43v7.17a.44.44,0,0,0,.44.43h3.91v4h0a.44.44,0,0,0,.44.44h8a.44.44,0,0,0,.44-.44h0v-4h3.91a.44.44,0,0,0,.44-.43V11.17a.44.44,0,0,0-.42-.44ZM26.7,12.84a1.59,1.59,0,0,1-.57.63,2.38,2.38,0,0,1-.87.32,6.74,6.74,0,0,1-1.11.09H21.73V9.59h2.42a6.74,6.74,0,0,1,1.11.09,2.38,2.38,0,0,1,.87.32,1.56,1.56,0,0,1,.57.62,2.49,2.49,0,0,1,.22,1.11,2.43,2.43,0,0,1-.22,1.11Zm-9,2.25a4.58,4.58,0,0,0-1.07-1A5.9,5.9,0,0,0,15,13.28c-.53-.16-.93-.27-1.24-.34l-2.39-.64A8.22,8.22,0,0,1,10,11.82a1.34,1.34,0,0,1-.57-.44,1.22,1.22,0,0,1-.13-.62,1.32,1.32,0,0,1,.17-.7,1.86,1.86,0,0,1,.48-.49,1.89,1.89,0,0,1,.67-.27,3.46,3.46,0,0,1,.78-.09,5.6,5.6,0,0,1,1.12.11,2.6,2.6,0,0,1,.87.35,1.61,1.61,0,0,1,.57.64,2.43,2.43,0,0,1,.25.93h0a.44.44,0,0,0,.42.45h3.07v3.4ZM41.31,6.63a.43.43,0,0,0-.41-.44H37.31a.42.42,0,0,0-.37.24L33.7,12.58c-.57-1-1.68-3-3.52-6.18h0a.43.43,0,0,0-.34-.21H18.1a.43.43,0,0,0-.41.44h0V9c0-.08-.07-.15-.1-.22a5,5,0,0,0-1.5-1.75A6.23,6.23,0,0,0,14,6.1a10.19,10.19,0,0,0-2.44-.29,7.93,7.93,0,0,0-2.19.31,5.93,5.93,0,0,0-2,1A5.08,5.08,0,0,0,5.9,8.72a4.73,4.73,0,0,0-.55,2.34,4.38,4.38,0,0,0,.44,2.06,4.3,4.3,0,0,0,1.15,1.41,5.79,5.79,0,0,0,1.57.9,15.59,15.59,0,0,0,1.75.58c.57.16,1.14.32,1.71.46a11,11,0,0,1,1.46.46,2.91,2.91,0,0,1,1,.63,1.11,1.11,0,0,1,.32.85,1.32,1.32,0,0,1-.24.83,2,2,0,0,1-.67.55,3.44,3.44,0,0,1-.91.28,6.35,6.35,0,0,1-1,.07A4.71,4.71,0,0,1,10.7,20a2.71,2.71,0,0,1-1-.48A2.18,2.18,0,0,1,9,18.68a2.65,2.65,0,0,1-.25-1.12h0a.44.44,0,0,0-.43-.44H5.26a.44.44,0,0,0-.43.43,5.86,5.86,0,0,0,.56,2.63A5.58,5.58,0,0,0,7,22.1a6.61,6.61,0,0,0,2.26,1.1,9.82,9.82,0,0,0,2.6.35,9.58,9.58,0,0,0,2.92-.41A6.15,6.15,0,0,0,16.88,22a4.76,4.76,0,0,0,.81-.87v1.59h0a.44.44,0,0,0,.43.45h3.19a.44.44,0,0,0,.42-.45V17.28h3.36a6.77,6.77,0,0,0,2.64-.47,5,5,0,0,0,1.79-1.25,4.93,4.93,0,0,0,.7-1c.4.66,1,1.58,1.32,2.14l-3.08,5.83a.45.45,0,0,0,0,.2.44.44,0,0,0,.42.45H32.3a.41.41,0,0,0,.37-.23L41.26,6.85a.54.54,0,0,0,.05-.22ZM10.27,16h0Z" class="spy-logo__mark"></path>
</svg>
